<?xml version="1.0" standalone="no"?><!DOCTYPE svg PUBLIC "-//W3C//DTD SVG 1.1//EN" "http://www.w3.org/Graphics/SVG/1.1/DTD/svg11.dtd"><svg t="1492508016649" class="icon" style="" viewBox="0 0 1024 1024" version="1.1" xmlns="http://www.w3.org/2000/svg" p-id="2077" xmlns:xlink="http://www.w3.org/1999/xlink" width="200" height="200"><defs><style type="text/css"></style></defs><path d="M512 1023.6928C229.248 1023.6928 0.0256 794.5472 0.0256 511.872 0.0256 229.1968 229.248 0.0256 512 0.0256c282.752 0 511.9744 229.1712 511.9744 511.8464S794.752 1023.6928 512 1023.6928zM511.36 79.616c-238.7712 0-432.3584 193.536-432.3584 432.256 0 110.4896 41.8304 210.9696 110.0544 287.3856 17.5616-21.6064 36.4544-36.4544 36.4544-36.4544 119.1424-34.7648 187.7504-92.928 219.7248-126.9504v-47.8976c-32.9728-20.5056-55.9616-55.808-58.2656-97.2544l-0.8448-15.1552a21.2224 21.2224 0 0 1-6.6304 1.3312 21.9904 21.9904 0 0 1-21.9904-21.9904v-43.9808a22.016 22.016 0 0 1 21.9904-21.9904c0.6656 0 1.2032 0.3072 1.8432 0.3584l-1.5872-28.4416c-4.352-78.464 54.5536-145.9968 131.84-145.9968 77.2864 0 136.1152 67.5328 131.6864 145.9968l-1.6128 28.4416c0.64-0.0512 1.1776-0.3584 1.8176-0.3584a22.016 22.016 0 0 1 22.016 21.9904v43.9808a22.016 22.016 0 0 1-22.016 21.9904 20.992 20.992 0 0 1-6.6816-1.3568l-0.8448 15.1808c-2.3552 41.3696-25.2928 76.6464-58.1888 97.1776v47.9744c31.9744 34.0224 100.5568 92.1856 219.7248 126.9504 0 0 18.816 14.7968 36.3264 36.3008 68.1472-76.3904 109.9264-176.8192 109.9264-287.232 0-238.72-193.5872-432.256-432.384-432.256z" fill="#8391a6" p-id="2078"></path></svg>