<?xml version="1.0" encoding="utf-8"?>
<!-- Generator: Adobe Illustrator 16.0.0, SVG Export Plug-In . SVG Version: 6.00 Build 0)  -->
<!DOCTYPE svg PUBLIC "-//W3C//DTD SVG 1.1//EN" "http://www.w3.org/Graphics/SVG/1.1/DTD/svg11.dtd">
<svg version="1.1" id="图层_1" xmlns="http://www.w3.org/2000/svg" xmlns:xlink="http://www.w3.org/1999/xlink" x="0px" y="0px"
	 width="30px" height="30px" viewBox="0 0 30 30" enable-background="new 0 0 30 30" xml:space="preserve">
<path fill-rule="evenodd" clip-rule="evenodd" fill="#6AFFF4" d="M28.571,26v-7.137l-1.905-1.572v-1.375v-3.208h0.238l-3.571-1.375
	c0,3.881,0,14.667,0,14.667h-8.571V12.319l8.571-2.361l4.763,1.833v0.917v0.458v3.929L30,18.666v1.375V26H28.571z M16.742,12.922
	l-1.158,0.298v1.407l1.158-0.219V12.922z M16.742,15.399l-1.158,0.166v1.407l1.158-0.087V15.399z M16.742,17.875l-1.158,0.034v1.407
	l1.158,0.045V17.875z M18.989,12.343l-1.401,0.361v1.544l1.401-0.266V12.343z M18.989,15.076l-1.401,0.201v1.544l1.401-0.105V15.076
	z M18.989,17.809l-1.401,0.042v1.544l1.401,0.055V17.809z M21.756,11.629l-1.731,0.447v1.71l1.731-0.328V11.629z M21.756,14.679
	l-1.731,0.249v1.711l1.731-0.131V14.679z M21.756,17.728l-1.731,0.052v1.71l1.731,0.067V17.728z M16.666,8.125l-4.761-2.292
	c0,5.279,0,20.167,0,20.167H0V7.238L11.905,4l6.191,2.75v4.125h-1.43V8.125z M2.75,8.064L1.143,8.474v1.929l1.607-0.3V8.064z
	 M2.75,11.461l-1.607,0.228v1.929l1.607-0.119V11.461z M2.75,14.857l-1.607,0.047v1.93l1.607,0.062V14.857z M5.871,7.27L3.925,7.765
	v2.118l1.946-0.364V7.27z M5.871,11.019l-1.946,0.276v2.117l1.946-0.144V11.019z M5.871,14.767l-1.946,0.057v2.118l1.946,0.074
	V14.767z M9.714,6.292L7.309,6.904V9.25l2.406-0.45V6.292z M9.714,10.474l-2.406,0.341v2.346l2.406-0.178V10.474z M9.714,14.655
	l-2.406,0.07v2.346l2.406,0.093V14.655z"/>
</svg>
